# xmcd
#
# Track frame offsets: 
#        182
#        13892
#        28285
#        40157
#        54207
#        66087
#        76840
#        89735
#        101660
#        114542
#        128425
#        141342
#        155077
#        168375
#        182835
#        195405
#        209290
#        219737
#
# Disc length: 3125 seconds
#
# Revision: 2
# Processed by: cddbd v1.5.2PL0 Copyright (c) Steve Scherf et al.
# Submitted via: ExactAudioCopyFreeDBPlugin 1.0
#
DISCID=010c3312
DTITLE=John Lee Hooker - Col. Maestros del Jazz and Blues
DYEAR=1949
DGENRE=Blues
TTITLE0=Hobo Blues
TTITLE1=Women in My Life
TTITLE2=Let Your Daddy Ride
TTITLE3=Turn overa New Leaf
TTITLE4=I Got the Key
TTITLE5=Gotta Boogie
TTITLE6=Down Child
TTITLE7=Yes, Baby, Baby, Baby
TTITLE8=Do My Baby Think of Me?
TTITLE9=Bad Boy
TTITLE10=Rock House Boogie
TTITLE11=Tease Me Baby
TTITLE12=Please Take Me Back
TTITLE13=How Long Must I Be Your Slave
TTITLE14=Huckle Up Baby
TTITLE15=Alberta
TTITLE16=Hastings Street Boogie
TTITLE17=Hello Baby
EXTD=YEAR: 1949-1954 ID3G:   0
EXTT0=
EXTT1=
EXTT2=
EXTT3=
EXTT4=
EXTT5=
EXTT6=
EXTT7=
EXTT8=
EXTT9=
EXTT10=
EXTT11=
EXTT12=
EXTT13=
EXTT14=
EXTT15=
EXTT16=
EXTT17=
PLAYORDER=
